<?xml version="1.0" encoding="UTF-8"?>
<!-- Creator: CorelDRAW 2019 (64 Bit Versão de avaliação) -->
<svg xmlns="http://www.w3.org/2000/svg" xmlns:xlink="http://www.w3.org/1999/xlink" xml:space="preserve" width="350px" height="309px" version="1.1" style="shape-rendering:geometricPrecision; text-rendering:geometricPrecision; image-rendering:optimizeQuality; fill-rule:evenodd; clip-rule:evenodd" viewBox="0 0 770.42 679.96">
 <defs>
  <style type="text/css">
   <![CDATA[
    .fil1 {fill:none}
    .fil0 {fill:#4A555C;fill-rule:nonzero}
   ]]>
  </style>
 </defs>
 <g id="Camada_x0020_1">
  <metadata id="CorelCorpID_0Corel-Layer"></metadata>
  <polygon class="fil0" points="196.76,474.67 196.76,423.29 67.94,423.29 67.94,362 182.45,362 182.45,311.36 67.94,311.36 67.94,252.64 196.02,252.64 196.02,201.62 9.96,201.62 9.96,474.67 "></polygon>
  <path id="1" class="fil0" d="M354.2 474.67l0 -44.04 -24.22 0c-9.54,0 -16.58,-2.02 -21.1,-6.06 -4.53,-4.03 -6.79,-10.7 -6.79,-20l0 -80.37 51.38 0 0 -43.67 -51.38 0 0 -52.12 -53.58 0 0 52.12 -27.9 0 0 43.67 27.9 0 0 83.31c0,22.02 6.79,38.72 20.36,50.09 13.58,11.38 32.24,17.07 55.97,17.07l29.36 0z"></path>
  <path id="2" class="fil0" d="M556.05 410.44l-49.91 0c0,17.62 -12.23,26.43 -36.7,26.43 -11.75,0 -21.1,-2.94 -28.08,-8.81 -6.97,-5.87 -10.46,-14.68 -10.46,-26.42l0 -8.45 125.52 0 0 -34.86c0,-25.69 -7.96,-45.51 -23.86,-59.45 -15.9,-13.95 -37.07,-20.92 -63.49,-20.92 -26.18,0 -47.28,7.09 -63.3,21.28 -16.03,14.19 -24.04,33.52 -24.04,57.99l0 45.51c0,23.73 8.01,42.26 24.04,55.6 16.02,13.33 37.12,20 63.3,20 26.42,0 47.53,-5.88 63.31,-17.62 15.78,-11.74 23.67,-27.77 23.67,-48.08l0 -2.2zm-48.81 -48.81l-76.34 0 0 -4.4c0,-12.23 3.37,-21.59 10.1,-28.08 6.72,-6.48 16.21,-9.72 28.44,-9.72 11.99,0 21.28,3.18 27.89,9.54 6.61,6.36 9.91,15.66 9.91,27.89l0 4.77z"></path>
  <path id="3" class="fil0" d="M760.47 398.7l-49.91 0c0,23.49 -11.87,35.23 -35.6,35.23 -23.49,0 -35.24,-12.35 -35.24,-37.07l0 -37.8c0,-24.71 11.75,-37.06 35.24,-37.06 23.73,0 35.6,11.86 35.6,35.6l49.91 0 0 -3.31c0,-24.71 -7.65,-43.61 -22.94,-56.7 -15.29,-13.09 -36.15,-19.63 -62.57,-19.63 -26.18,0 -46.98,6.79 -62.39,20.37 -15.42,13.57 -23.12,32.35 -23.12,56.33l0 46.98c0,23.97 7.7,42.75 23.12,56.33 15.41,13.58 36.21,20.37 62.39,20.37 26.42,0 47.28,-6.55 62.57,-19.64 15.29,-13.09 22.94,-31.99 22.94,-56.7l0 -3.3z"></path>
  <rect class="fil1" width="770.42" height="679.96"></rect>
 </g>
</svg>
